<svg width="64" height="64" viewBox="0 0 64 64" fill="none" xmlns="http://www.w3.org/2000/svg">
  <rect width="64" height="64" rx="18" fill="#0F172A"/>
  <path d="M13 43V20.5C13 18.6 14.6 17 16.5 17H26C27.9 17 29.5 18.6 29.5 20.5V43H13Z" fill="url(#paint0_linear)"/>
  <path d="M34.5 43V26.5C34.5 24.6 36.1 23 38 23H47.5C49.4 23 51 24.6 51 26.5V43H34.5Z" fill="url(#paint1_linear)"/>
  <path d="M18 27H24.5" stroke="white" stroke-width="3" stroke-linecap="round"/>
  <path d="M18 34H24.5" stroke="white" stroke-width="3" stroke-linecap="round"/>
  <path d="M39.5 31H46" stroke="white" stroke-width="3" stroke-linecap="round"/>
  <path d="M39.5 37H46" stroke="white" stroke-width="3" stroke-linecap="round"/>
  <path d="M12 47H52" stroke="#38BDF8" stroke-width="3" stroke-linecap="round"/>
  <circle cx="50" cy="15" r="5" fill="#22C55E"/>
  <defs>
    <linearGradient id="paint0_linear" x1="13" y1="17" x2="33.5" y2="39.5" gradientUnits="userSpaceOnUse">
      <stop stop-color="#2563EB"/>
      <stop offset="1" stop-color="#22C55E"/>
    </linearGradient>
    <linearGradient id="paint1_linear" x1="34.5" y1="23" x2="52.5" y2="43" gradientUnits="userSpaceOnUse">
      <stop stop-color="#38BDF8"/>
      <stop offset="1" stop-color="#16A34A"/>
    </linearGradient>
  </defs>
</svg>
